# File created by Blade
# Date/Time:  Tue Jan 27 18:50:05 2015
# Frame Rate: 120.000 fps
#------------------------------------------------------
:FULLY-SPECIFIED
:DEGREES
2114
root -0.671850 31.936645 -6.251849 8.497071 -12.111685 -23.911791
Spine 11.156583 3.433444 12.977899
Head -0.945574 -46.202502 23.248318
LeftShoulder -14.328037 17.283761 17.947713
LeftArm 6.241728 -32.909408 -69.952244
LeftForeArm -9.513028 -0.000000 135.811116
LeftHand -21.831139 -0.000000 19.555918
LeftHandThumb1 -26.253704 0.000000 33.147579
RightShoulder -2.329890 13.727498 -5.852191
RightArm 57.108249 -62.883110 48.521700
RightForeArm -35.378119 -0.000000 64.024779
RightHand -12.665197 -0.000000 9.473197
RightHandThumb1 -24.326973 -0.000000 -32.862282
LeftUpLeg -15.902525 14.396728 9.741002
LeftLeg 31.982142 -0.000000 -0.000000
LeftFoot -42.539429 32.403518 -30.087363
LeftToeBase 5.191911 -0.000000 -0.000000
RightUpLeg -67.006027 -31.577059 -6.295411
RightLeg 91.664705 -0.000000 -0.000000
RightFoot -17.372925 -27.287322 18.811765
RightToeBase 16.217715 -0.000000 -0.000000
2115
root -0.711658 31.997858 -6.230432 8.586898 -11.145347 -24.239247
Spine 10.754771 2.943447 13.315853
Head -1.082413 -46.839012 23.846541
LeftShoulder -14.080819 17.207013 18.237688
LeftArm 6.305360 -32.429769 -70.084921
LeftForeArm -9.223227 -0.000000 135.568153
LeftHand -21.859921 0.000000 19.756834
LeftHandThumb1 -26.253704 0.000000 33.147579
RightShoulder -2.575555 13.583371 -5.679118
RightArm 56.848158 -62.815698 48.628763
RightForeArm -35.555417 -0.000000 64.002191
RightHand -12.678269 -0.000000 9.621159
RightHandThumb1 -24.326973 -0.000000 -32.862282
LeftUpLeg -16.029857 14.051910 10.228564
LeftLeg 31.715904 -0.000000 -0.000000
LeftFoot -42.076104 32.070766 -29.897453
LeftToeBase 5.068593 -0.000000 -0.000000
RightUpLeg -64.999161 -30.863928 -8.522662
RightLeg 92.562965 -0.000000 -0.000000
RightFoot -16.086094 -27.965578 17.363122
RightToeBase 16.802153 -0.000000 -0.000000
2116
root -0.754013 32.060479 -6.210057 8.655054 -10.201228 -24.610170
Spine 10.406686 2.496601 13.716899
Head -1.281639 -47.456523 24.424157
LeftShoulder -13.856005 17.184432 18.456603
LeftArm 6.508126 -32.010255 -70.230351
LeftForeArm -8.992632 0.000000 135.301527
LeftHand -21.818066 -0.000000 19.990427
LeftHandThumb1 -26.253704 0.000000 33.147579
RightShoulder -2.845822 13.456459 -5.553254
RightArm 56.737664 -62.770326 48.619060
RightForeArm -35.549997 -0.000000 63.950199
RightHand -12.653380 0.000000 9.468313
RightHandThumb1 -24.326973 -0.000000 -32.862282
LeftUpLeg -16.131119 13.812016 10.787640
LeftLeg 31.455320 -0.000000 -0.000000
LeftFoot -41.573987 31.605551 -29.639795
LeftToeBase 4.848230 -0.000000 -0.000000
RightUpLeg -63.052516 -30.064811 -10.578131
RightLeg 93.478329 -0.000000 -0.000000
RightFoot -15.211787 -28.254471 16.608597
RightToeBase 17.632760 -0.000000 -0.000000
2117
root -0.793380 32.123325 -6.187214 8.685047 -9.287398 -24.951781
Spine 10.087844 2.094999 14.081431
Head -1.531756 -48.103404 25.070836
LeftShoulder -13.568866 16.934718 18.740834
LeftArm 6.449439 -31.574937 -70.247655
LeftForeArm -8.651839 -0.000000 135.033862
LeftHand -21.945145 0.000000 20.393640
LeftHandThumb1 -26.253704 0.000000 33.147579
RightShoulder -3.128745 13.370893 -5.394782
RightArm 56.594857 -62.736068 48.595280
RightForeArm -35.366493 -0.000000 63.901927
RightHand -12.624883 -0.000000 9.420127
RightHandThumb1 -24.326973 -0.000000 -32.862282
LeftUpLeg -16.179614 13.650284 11.309172
LeftLeg 31.151240 -0.000000 -0.000000
LeftFoot -41.034043 31.056936 -29.359090
LeftToeBase 4.986610 -0.000000 -0.000000
RightUpLeg -61.168048 -29.253539 -12.502821
RightLeg 94.409217 -0.000000 -0.000000
RightFoot -14.633138 -28.396507 15.755056
RightToeBase 18.115350 -0.000000 -0.000000
2118
root -0.824395 32.176767 -6.165368 8.740599 -8.333204 -25.152068
Spine 9.709226 1.563472 14.303062
Head -1.813099 -48.657327 25.693022
LeftShoulder -13.379878 16.889222 18.935740
LeftArm 6.559135 -31.248323 -70.295499
LeftForeArm -8.458417 -0.000000 134.771597
LeftHand -21.926206 -0.000000 20.623585
LeftHandThumb1 -26.253704 0.000000 33.147579
RightShoulder -3.342751 13.236717 -5.267416
RightArm 56.551390 -62.683838 48.582695
RightForeArm -35.445841 -0.000000 63.835180
RightHand -12.689142 -0.000000 9.548662
RightHandThumb1 -24.326973 -0.000000 -32.862282
LeftUpLeg -16.315482 13.555815 11.657525
LeftLeg 30.887614 -0.000000 -0.000000
LeftFoot -40.448690 30.312430 -29.103507
LeftToeBase 4.771963 -0.000000 -0.000000
RightUpLeg -59.433249 -28.552401 -14.429215
RightLeg 95.411994 -0.000000 -0.000000
RightFoot -14.696973 -28.374420 15.072768
RightToeBase 18.517941 -0.000000 -0.000000
